<svg xmlns="http://www.w3.org/2000/svg" viewBox="0 0 300 110" role="img" aria-label="Galon">
  <defs>
    <clipPath id="board"><path d="M8,16 L290,6 Q296,6 296,12 L296,98 Q296,104 290,104 L8,94 Q4,94 4,90 L4,20 Q4,16 8,16 Z"/></clipPath>
    <linearGradient id="fond" x1="0" y1="0" x2="0" y2="1">
      <stop offset="0" stop-color="#262a35"/>
      <stop offset="0.45" stop-color="#101218"/>
      <stop offset="1" stop-color="#07080b"/>
    </linearGradient>
    <linearGradient id="or" x1="0" y1="0" x2="1" y2="0">
      <stop offset="0" stop-color="#b7841a"/>
      <stop offset="0.5" stop-color="#e8b02a"/>
      <stop offset="1" stop-color="#b7841a"/>
    </linearGradient>
    <linearGradient id="argent" x1="0" y1="0" x2="1" y2="0">
      <stop offset="0" stop-color="#9aa1ad"/>
      <stop offset="0.5" stop-color="#dfe3ea"/>
      <stop offset="1" stop-color="#9aa1ad"/>
    </linearGradient>
  </defs>
  <path d="M8,16 L290,6 Q296,6 296,12 L296,98 Q296,104 290,104 L8,94 Q4,94 4,90 L4,20 Q4,16 8,16 Z" fill="url(#fond)" stroke="#000" stroke-width="1"/>
  <g clip-path="url(#board)">
    <rect x="227" y="6" width="11" height="98" fill="url(#or)"/>
    <rect x="244" y="6" width="11" height="98" fill="url(#or)"/>
    <rect x="261" y="6" width="11" height="98" fill="url(#or)"/>
  </g>
  <g transform="translate(64,55) rotate(-90) scale(1)" fill="none" stroke="#e8b02a"
     stroke-width="5" stroke-linecap="round" stroke-linejoin="round">
    <circle cx="0" cy="-30" r="5.5"/>
    <line x1="-14" y1="-18" x2="14" y2="-18"/>
    <line x1="0" y1="-24" x2="0" y2="28"/>
    <path d="M-24,8 Q-21,28 0,29 Q21,28 24,8"/>
    <path d="M-29,13 L-24,6 L-18,12" />
    <path d="M29,13 L24,6 L18,12" />
  </g>
</svg>
